<svg width="167" height="23" viewBox="0 0 167 23" fill="none" xmlns="http://www.w3.org/2000/svg">
<path d="M0.960938 11.5664C0.960938 9.59766 1.42188 8.02734 2.34375 6.85547C3.27344 5.67578 4.50391 5.08594 6.03516 5.08594C7.48047 5.08594 8.61719 5.58984 9.44531 6.59766L9.57422 5.32031H12.1406V17.6133C12.1406 19.2773 11.6211 20.5898 10.582 21.5508C9.55078 22.5117 8.15625 22.9922 6.39844 22.9922C5.46875 22.9922 4.55859 22.7969 3.66797 22.4062C2.78516 22.0234 2.11328 21.5195 1.65234 20.8945L3 19.1836C3.875 20.2227 4.95312 20.7422 6.23438 20.7422C7.17969 20.7422 7.92578 20.4844 8.47266 19.9688C9.01953 19.4609 9.29297 18.7109 9.29297 17.7188V16.8633C8.47266 17.7773 7.37891 18.2344 6.01172 18.2344C4.52734 18.2344 3.3125 17.6445 2.36719 16.4648C1.42969 15.2852 0.960938 13.6523 0.960938 11.5664ZM3.79688 11.8125C3.79688 13.0859 4.05469 14.0898 4.57031 14.8242C5.09375 15.5508 5.81641 15.9141 6.73828 15.9141C7.88672 15.9141 8.73828 15.4219 9.29297 14.4375V8.85938C8.75391 7.89844 7.91016 7.41797 6.76172 7.41797C5.82422 7.41797 5.09375 7.78906 4.57031 8.53125C4.05469 9.27344 3.79688 10.3672 3.79688 11.8125ZM18.1055 18H15.2578V5.32031H18.1055V18ZM15.082 2.02734C15.082 1.58984 15.2188 1.22656 15.4922 0.9375C15.7734 0.648437 16.1719 0.503906 16.6875 0.503906C17.2031 0.503906 17.6016 0.648437 17.8828 0.9375C18.1641 1.22656 18.3047 1.58984 18.3047 2.02734C18.3047 2.45703 18.1641 2.81641 17.8828 3.10547C17.6016 3.38672 17.2031 3.52734 16.6875 3.52734C16.1719 3.52734 15.7734 3.38672 15.4922 3.10547C15.2188 2.81641 15.082 2.45703 15.082 2.02734ZM24.7852 2.23828V5.32031H27.0234V7.42969H24.7852V14.5078C24.7852 14.9922 24.8789 15.3438 25.0664 15.5625C25.2617 15.7734 25.6055 15.8789 26.0977 15.8789C26.4258 15.8789 26.7578 15.8398 27.0938 15.7617V17.9648C26.4453 18.1445 25.8203 18.2344 25.2188 18.2344C23.0312 18.2344 21.9375 17.0273 21.9375 14.6133V7.42969H19.8516V5.32031H21.9375V2.23828H24.7852ZM32.0156 6.70312C32.9453 5.625 34.1211 5.08594 35.543 5.08594C38.2461 5.08594 39.6172 6.62891 39.6562 9.71484V18H36.8086V9.82031C36.8086 8.94531 36.6172 8.32812 36.2344 7.96875C35.8594 7.60156 35.3047 7.41797 34.5703 7.41797C33.4297 7.41797 32.5781 7.92578 32.0156 8.94141V18H29.168V0H32.0156V6.70312ZM50.2266 16.7578C49.3906 17.7422 48.2031 18.2344 46.6641 18.2344C45.2891 18.2344 44.2461 17.832 43.5352 17.0273C42.832 16.2227 42.4805 15.0586 42.4805 13.5352V5.32031H45.3281V13.5C45.3281 15.1094 45.9961 15.9141 47.332 15.9141C48.7148 15.9141 49.6484 15.418 50.1328 14.4258V5.32031H52.9805V18H50.2969L50.2266 16.7578ZM67.0078 11.7891C67.0078 13.7578 66.5664 15.3242 65.6836 16.4883C64.8086 17.6523 63.6016 18.2344 62.0625 18.2344C60.5781 18.2344 59.4219 17.6992 58.5938 16.6289L58.4531 18H55.875V0H58.7227V6.53906C59.543 5.57031 60.6484 5.08594 62.0391 5.08594C63.5859 5.08594 64.8008 5.66016 65.6836 6.80859C66.5664 7.95703 67.0078 9.5625 67.0078 11.625V11.7891ZM64.1602 11.543C64.1602 10.168 63.918 9.13672 63.4336 8.44922C62.9492 7.76172 62.2461 7.41797 61.3242 7.41797C60.0898 7.41797 59.2227 7.95703 58.7227 9.03516V14.2617C59.2305 15.3633 60.1055 15.9141 61.3477 15.9141C62.2383 15.9141 62.9258 15.582 63.4102 14.918C63.8945 14.2539 64.1445 13.25 64.1602 11.9062V11.543Z" fill="#737380"/>
<path d="M78.7266 20.2383H67.9805V18H78.7266V20.2383ZM85.8164 18.2344C84.0117 18.2344 82.5469 17.668 81.4219 16.5352C80.3047 15.3945 79.7461 13.8789 79.7461 11.9883V11.6367C79.7461 10.3711 79.9883 9.24219 80.4727 8.25C80.9648 7.25 81.6523 6.47266 82.5352 5.91797C83.418 5.36328 84.4023 5.08594 85.4883 5.08594C87.2148 5.08594 88.5469 5.63672 89.4844 6.73828C90.4297 7.83984 90.9023 9.39844 90.9023 11.4141V12.5625H82.6172C82.7031 13.6094 83.0508 14.4375 83.6602 15.0469C84.2773 15.6562 85.0508 15.9609 85.9805 15.9609C87.2852 15.9609 88.3477 15.4336 89.168 14.3789L90.7031 15.8438C90.1953 16.6016 89.5156 17.1914 88.6641 17.6133C87.8203 18.0273 86.8711 18.2344 85.8164 18.2344ZM85.4766 7.37109C84.6953 7.37109 84.0625 7.64453 83.5781 8.19141C83.1016 8.73828 82.7969 9.5 82.6641 10.4766H88.0898V10.2656C88.0273 9.3125 87.7734 8.59375 87.3281 8.10938C86.8828 7.61719 86.2656 7.37109 85.4766 7.37109ZM97.6758 9.49219L100.09 5.32031H103.254L99.375 11.5664L103.383 18H100.242L97.7109 13.6641L95.1914 18H92.0273L96.0352 11.5664L92.168 5.32031H95.3086L97.6758 9.49219ZM116.297 11.7891C116.297 13.75 115.852 15.3164 114.961 16.4883C114.07 17.6523 112.875 18.2344 111.375 18.2344C109.984 18.2344 108.871 17.7773 108.035 16.8633V22.875H105.188V5.32031H107.812L107.93 6.60938C108.766 5.59375 109.902 5.08594 111.34 5.08594C112.887 5.08594 114.098 5.66406 114.973 6.82031C115.855 7.96875 116.297 9.56641 116.297 11.6133V11.7891ZM113.461 11.543C113.461 10.2773 113.207 9.27344 112.699 8.53125C112.199 7.78906 111.48 7.41797 110.543 7.41797C109.379 7.41797 108.543 7.89844 108.035 8.85938V14.4844C108.551 15.4688 109.395 15.9609 110.566 15.9609C111.473 15.9609 112.18 15.5977 112.688 14.8711C113.203 14.1367 113.461 13.0273 113.461 11.543ZM121.746 18H118.898V0H121.746V18ZM124.324 11.543C124.324 10.3008 124.57 9.18359 125.062 8.19141C125.555 7.19141 126.246 6.42578 127.137 5.89453C128.027 5.35547 129.051 5.08594 130.207 5.08594C131.918 5.08594 133.305 5.63672 134.367 6.73828C135.438 7.83984 136.016 9.30078 136.102 11.1211L136.113 11.7891C136.113 13.0391 135.871 14.1562 135.387 15.1406C134.91 16.125 134.223 16.8867 133.324 17.4258C132.434 17.9648 131.402 18.2344 130.23 18.2344C128.441 18.2344 127.008 17.6406 125.93 16.4531C124.859 15.2578 124.324 13.668 124.324 11.6836V11.543ZM127.172 11.7891C127.172 13.0938 127.441 14.1172 127.98 14.8594C128.52 15.5938 129.27 15.9609 130.23 15.9609C131.191 15.9609 131.938 15.5859 132.469 14.8359C133.008 14.0859 133.277 12.9883 133.277 11.543C133.277 10.2617 133 9.24609 132.445 8.49609C131.898 7.74609 131.152 7.37109 130.207 7.37109C129.277 7.37109 128.539 7.74219 127.992 8.48438C127.445 9.21875 127.172 10.3203 127.172 11.7891ZM145.16 7.92188C144.785 7.85938 144.398 7.82812 144 7.82812C142.695 7.82812 141.816 8.32812 141.363 9.32812V18H138.516V5.32031H141.234L141.305 6.73828C141.992 5.63672 142.945 5.08594 144.164 5.08594C144.57 5.08594 144.906 5.14062 145.172 5.25L145.16 7.92188ZM152.309 18.2344C150.504 18.2344 149.039 17.668 147.914 16.5352C146.797 15.3945 146.238 13.8789 146.238 11.9883V11.6367C146.238 10.3711 146.48 9.24219 146.965 8.25C147.457 7.25 148.145 6.47266 149.027 5.91797C149.91 5.36328 150.895 5.08594 151.98 5.08594C153.707 5.08594 155.039 5.63672 155.977 6.73828C156.922 7.83984 157.395 9.39844 157.395 11.4141V12.5625H149.109C149.195 13.6094 149.543 14.4375 150.152 15.0469C150.77 15.6562 151.543 15.9609 152.473 15.9609C153.777 15.9609 154.84 15.4336 155.66 14.3789L157.195 15.8438C156.688 16.6016 156.008 17.1914 155.156 17.6133C154.312 18.0273 153.363 18.2344 152.309 18.2344ZM151.969 7.37109C151.188 7.37109 150.555 7.64453 150.07 8.19141C149.594 8.73828 149.289 9.5 149.156 10.4766H154.582V10.2656C154.52 9.3125 154.266 8.59375 153.82 8.10938C153.375 7.61719 152.758 7.37109 151.969 7.37109ZM166.254 7.92188C165.879 7.85938 165.492 7.82812 165.094 7.82812C163.789 7.82812 162.91 8.32812 162.457 9.32812V18H159.609V5.32031H162.328L162.398 6.73828C163.086 5.63672 164.039 5.08594 165.258 5.08594C165.664 5.08594 166 5.14062 166.266 5.25L166.254 7.92188Z" fill="#A8A8B3"/>
</svg>
